<?xml version="1.0" encoding="UTF-8" standalone="no"?>
<svg width="256" height="256" viewBox="0 0 256 256" fill="none" xmlns="http://www.w3.org/2000/svg">
<rect width="256" height="256" rx="20" fill="#00B060"/>
<path d="M171.192 106.222C171.192 109.022 170.586 111.122 169.372 112.522C168.252 113.922 166.386 114.622 163.772 114.622C163.586 116.582 163.166 119.988 162.512 124.842C161.579 131.375 161.066 135.015 160.972 135.762C152.666 197.642 135.352 228.582 109.032 228.582C101.286 228.582 95.2189 226.388 90.8322 222.002C86.5389 217.615 84.3922 212.108 84.3922 205.482C84.3922 193.628 89.4322 183.175 99.5122 174.122C109.592 164.975 122.846 157.415 139.272 151.442C140.299 144.815 141.092 138.888 141.652 133.662L144.172 112.522C138.572 111.962 133.346 111.682 128.492 111.682C115.519 111.682 105.952 112.942 99.7922 115.462C93.6322 117.982 90.5522 122.088 90.5522 127.782C90.5522 130.582 91.4855 133.615 93.3522 136.882C93.9122 137.815 94.1922 138.795 94.1922 139.822C94.1922 141.782 93.1655 143.555 91.1122 145.142C89.1522 146.635 87.0055 147.382 84.6722 147.382C81.6855 147.382 79.3989 146.122 77.8122 143.602C75.1989 139.308 73.8922 134.315 73.8922 128.622C73.8922 106.222 93.4922 95.0216 132.692 95.0216C144.079 95.0216 154.252 96.1416 163.212 98.3816C168.532 99.6882 171.192 102.302 171.192 106.222ZM110.852 213.602C115.426 213.602 119.999 210.148 124.572 203.242C129.146 196.335 133.159 184.248 136.612 166.982C113.839 176.968 102.452 189.195 102.452 203.662C102.452 206.835 103.199 209.308 104.692 211.082C106.186 212.762 108.239 213.602 110.852 213.602ZM183.67 214.302C179.283 214.302 175.736 212.528 173.03 208.982C170.416 205.342 169.11 200.348 169.11 194.002C169.11 187.002 169.576 180.608 170.51 174.822C171.443 168.942 172.983 162.735 175.13 156.202C176.063 153.402 177.37 151.395 179.05 150.182C180.73 148.968 183.39 148.362 187.03 148.362C189.083 148.362 190.483 148.688 191.23 149.342C192.07 149.995 192.49 150.975 192.49 152.282C192.49 153.028 191.976 155.548 190.95 159.842C190.016 163.295 189.27 166.422 188.71 169.222C186.843 179.022 185.91 185.555 185.91 188.822C185.91 190.782 186.143 192.182 186.61 193.022C187.076 193.768 187.823 194.142 188.85 194.142C190.25 194.142 192.023 192.742 194.17 189.942C196.316 187.048 198.556 182.755 200.89 177.062C203.316 171.275 205.603 164.322 207.75 156.202C208.496 153.402 209.616 151.395 211.11 150.182C212.696 148.968 215.03 148.362 218.11 148.362C220.163 148.362 221.61 148.922 222.45 150.042C223.383 151.068 223.85 152.655 223.85 154.802C223.85 157.135 223.663 159.748 223.29 162.642C222.916 165.442 222.496 168.335 222.03 171.322C221.096 177.295 220.35 182.755 219.79 187.702C219.23 192.555 218.95 198.108 218.95 204.362C218.95 207.908 218.203 210.475 216.71 212.062C215.31 213.555 212.976 214.302 209.71 214.302C206.256 214.302 203.83 213.415 202.43 211.642C201.123 209.775 200.47 206.228 200.47 201.002C200.47 199.975 200.563 197.688 200.75 194.142C199.163 200.675 196.783 205.668 193.61 209.122C190.53 212.575 187.216 214.302 183.67 214.302Z" fill="white"/>
</svg>
